<svg width="1024" height="1024" viewBox="0 0 1024 1024" fill="none" xmlns="http://www.w3.org/2000/svg">
<g filter="url(#filter0_d_1_1708)">
<g filter="url(#filter1_i_1_1708)">
<path d="M444.32 303.903C450.843 297.34 458.888 292.491 467.737 289.786C476.587 287.082 485.968 286.606 495.046 288.4C504.124 290.195 512.618 294.205 519.773 300.073C526.927 305.942 532.521 313.487 536.057 322.039C539.593 330.59 540.962 339.883 540.041 349.09C539.12 358.298 535.938 367.136 530.778 374.817C525.619 382.499 518.641 388.787 510.466 393.122C502.29 397.457 493.171 399.706 483.917 399.667H231.167M528.57 720.098C535.093 726.66 543.138 731.509 551.987 734.214C560.837 736.918 570.218 737.395 579.296 735.6C588.374 733.805 596.868 729.795 604.023 723.927C611.177 718.058 616.771 710.513 620.307 701.962C623.843 693.41 625.212 684.117 624.291 674.91C623.37 665.702 620.188 656.864 615.028 649.183C609.869 641.501 602.891 635.213 594.716 630.878C586.54 626.543 577.421 624.295 568.167 624.333H231.167M672.918 392.084C681.086 383.937 691.136 377.928 702.179 374.589C713.222 371.249 724.917 370.683 736.231 372.939C747.545 375.196 758.129 380.206 767.046 387.525C775.963 394.845 782.939 404.25 787.357 414.907C791.774 425.565 793.498 437.147 792.374 448.628C791.251 460.11 787.315 471.139 780.916 480.738C774.516 490.337 765.85 498.211 755.683 503.663C745.516 509.116 734.162 511.979 722.625 512H231.167" stroke="#298EF3" stroke-width="64.5848" stroke-linecap="round" stroke-linejoin="round"/>
</g>
</g>
<defs>
<filter id="filter0_d_1_1708" x="171" y="175" width="682" height="682" filterUnits="userSpaceOnUse" color-interpolation-filters="sRGB">
<feFlood flood-opacity="0" result="BackgroundImageFix"/>
<feColorMatrix in="SourceAlpha" type="matrix" values="0 0 0 0 0 0 0 0 0 0 0 0 0 0 0 0 0 0 127 0" result="hardAlpha"/>
<feOffset dy="4"/>
<feGaussianBlur stdDeviation="2"/>
<feComposite in2="hardAlpha" operator="out"/>
<feColorMatrix type="matrix" values="0 0 0 0 0 0 0 0 0 0 0 0 0 0 0 0 0 0 0.25 0"/>
<feBlend mode="normal" in2="BackgroundImageFix" result="effect1_dropShadow_1_1708"/>
<feBlend mode="normal" in="SourceGraphic" in2="effect1_dropShadow_1_1708" result="shape"/>
</filter>
<filter id="filter1_i_1_1708" x="198.875" y="255.042" width="626.126" height="517.229" filterUnits="userSpaceOnUse" color-interpolation-filters="sRGB">
<feFlood flood-opacity="0" result="BackgroundImageFix"/>
<feBlend mode="normal" in="SourceGraphic" in2="BackgroundImageFix" result="shape"/>
<feColorMatrix in="SourceAlpha" type="matrix" values="0 0 0 0 0 0 0 0 0 0 0 0 0 0 0 0 0 0 127 0" result="hardAlpha"/>
<feOffset dy="24.8403"/>
<feGaussianBlur stdDeviation="1.65602"/>
<feComposite in2="hardAlpha" operator="arithmetic" k2="-1" k3="1"/>
<feColorMatrix type="matrix" values="0 0 0 0 0 0 0 0 0 0 0 0 0 0 0 0 0 0 0.25 0"/>
<feBlend mode="normal" in2="shape" result="effect1_innerShadow_1_1708"/>
</filter>
</defs>
</svg>
